<?xml version="1.0" encoding="iso-8859-1"?>
<!-- Uploaded to: SVG Repo, www.svgrepo.com, Generator: SVG Repo Mixer Tools -->
<svg fill="#000000" height="800px" width="800px" version="1.1" id="Capa_1" xmlns="http://www.w3.org/2000/svg" xmlns:xlink="http://www.w3.org/1999/xlink" 
	 viewBox="0 0 59.95 59.95" xml:space="preserve">
<g>
	<path d="M52.928,16.318C52.697,10.179,47.645,5.252,41.45,5.252c-3.551,0-6.73,1.619-8.841,4.156
		c-2.787-3.747-7.107-5.949-11.831-5.949c-8.157,0-14.793,6.636-14.793,14.793c0,3.861,1.483,7.442,4.102,10.169
		c-3.404,0.417-6.534,2.351-8.417,5.449c-3.293,5.419-1.563,12.507,3.855,15.799c0.163,0.099,0.342,0.146,0.519,0.146
		c0.338,0,0.667-0.171,0.855-0.48c0.287-0.472,0.137-1.087-0.335-1.374c-4.477-2.72-5.905-8.575-3.186-13.052
		c2.196-3.614,6.446-5.312,10.489-4.262c0.458,1.471,1.33,2.779,2.547,3.781c0.187,0.153,0.412,0.228,0.635,0.228
		c0.289,0,0.575-0.124,0.772-0.364c0.351-0.426,0.29-1.057-0.136-1.408c-0.989-0.814-1.671-1.9-1.986-3.117
		c-0.004-0.048-0.024-0.09-0.034-0.136c-0.001-0.005-0.002-0.01-0.004-0.014l-0.016-0.071c-0.148-0.674-0.179-1.353-0.101-2.015
		c0.003-0.029,0.009-0.058,0.013-0.087c0.024-0.181,0.056-0.36,0.097-0.537c0.012-0.051,0.025-0.101,0.038-0.151
		c0.04-0.155,0.086-0.308,0.138-0.459c0.02-0.059,0.041-0.118,0.063-0.176c0.054-0.141,0.114-0.28,0.179-0.417
		c0.028-0.06,0.055-0.121,0.086-0.18c0.07-0.137,0.149-0.271,0.23-0.404c0.032-0.052,0.061-0.107,0.095-0.158
		c0.118-0.18,0.245-0.355,0.384-0.524c0.494-0.6,1.091-1.071,1.74-1.431c1.132-0.627,2.439-0.884,3.746-0.692
		c-0.284,1.195-0.296,2.446-0.006,3.676c0.108,0.46,0.519,0.771,0.973,0.771c0.076,0,0.153-0.008,0.23-0.026
		c0.538-0.127,0.871-0.665,0.745-1.203c-0.271-1.152-0.197-2.33,0.199-3.416l0.065-0.165c0.085-0.215,0.184-0.422,0.292-0.623
		c0.015-0.028,0.031-0.056,0.047-0.085c0.072-0.129,0.154-0.251,0.234-0.374c0.176-0.268,0.366-0.525,0.579-0.758
		c0.059-0.065,0.127-0.122,0.189-0.184c0.18-0.181,0.372-0.349,0.573-0.505c0.083-0.065,0.164-0.132,0.251-0.192
		c0.258-0.178,0.529-0.335,0.814-0.471c0.08-0.039,0.162-0.072,0.244-0.107c0.315-0.134,0.638-0.253,0.979-0.333
		c0.335-0.079,0.677-0.127,1.023-0.146c0.005,0,0.009-0.001,0.014-0.001c0.348-0.018,0.701-0.006,1.055,0.037l0.302,0.036
		c0.749,0.129,1.473,0.4,2.139,0.812c1.363,0.844,2.315,2.167,2.682,3.728c0.126,0.537,0.662,0.871,1.203,0.745
		c0.538-0.126,0.871-0.665,0.745-1.203c-0.49-2.08-1.76-3.845-3.577-4.97c-0.743-0.46-1.544-0.783-2.37-0.979
		c0.011-0.281,0.024-0.562,0.06-0.839c0.012-0.093,0.028-0.184,0.042-0.276c0.058-0.359,0.132-0.715,0.23-1.065
		c0.01-0.037,0.018-0.074,0.028-0.11c0.121-0.411,0.269-0.814,0.446-1.206c0.007-0.015,0.015-0.03,0.021-0.045
		c0.174-0.381,0.374-0.751,0.598-1.109c0.034-0.055,0.065-0.111,0.1-0.165l0.091-0.144c1.711-2.512,4.593-4.166,7.856-4.166
		c5.094,0,9.253,4.033,9.478,9.073c-3.929,0.504-6.978,3.863-6.978,7.927c0,0.552,0.448,1,1,1s1-0.448,1-1c0-3.309,2.691-6,6-6
		s6,2.691,6,6c0,0.552,0.448,1,1,1s1-0.448,1-1C59.95,20.173,56.878,16.803,52.928,16.318z M20.777,5.459
		c4.315,0,8.245,2.121,10.63,5.704c-0.414,0.741-0.746,1.533-0.989,2.363c-0.023,0.08-0.04,0.161-0.062,0.242
		c-0.083,0.309-0.156,0.621-0.214,0.94c-0.025,0.138-0.043,0.276-0.063,0.415c-0.037,0.262-0.068,0.526-0.087,0.794
		c-0.006,0.083-0.023,0.164-0.027,0.247c-0.27,0.006-0.539,0.025-0.809,0.059c-0.011,0.001-0.022,0.001-0.032,0.003
		c-0.274,0.035-0.547,0.083-0.82,0.147c-0.275,0.065-0.544,0.145-0.808,0.237c-0.043,0.015-0.085,0.035-0.128,0.051
		c-0.224,0.082-0.445,0.172-0.659,0.273c-0.029,0.014-0.057,0.03-0.086,0.044c-0.227,0.11-0.448,0.231-0.662,0.362
		c-0.018,0.011-0.035,0.023-0.053,0.034c-0.221,0.138-0.435,0.286-0.641,0.444c-0.015,0.012-0.03,0.024-0.046,0.036
		c-0.202,0.158-0.396,0.325-0.583,0.502c-0.022,0.021-0.043,0.042-0.064,0.062c-0.173,0.168-0.338,0.344-0.496,0.528
		c-0.031,0.036-0.061,0.072-0.091,0.108c-0.142,0.172-0.277,0.35-0.405,0.535c-0.036,0.051-0.072,0.102-0.106,0.154
		c-0.046,0.07-0.097,0.134-0.141,0.206c-0.073,0.118-0.134,0.241-0.2,0.362c-0.018,0.033-0.04,0.063-0.058,0.096
		c-0.06-0.012-0.121-0.013-0.181-0.024c-0.163-0.029-0.326-0.046-0.49-0.065c-0.215-0.025-0.43-0.046-0.645-0.054
		c-0.17-0.006-0.337-0.003-0.506,0.002c-0.208,0.006-0.415,0.019-0.621,0.041c-0.169,0.018-0.337,0.041-0.504,0.07
		c-0.203,0.035-0.403,0.08-0.602,0.131c-0.164,0.042-0.326,0.084-0.486,0.136c-0.199,0.064-0.393,0.141-0.586,0.221
		c-0.152,0.063-0.304,0.123-0.452,0.195c-0.198,0.097-0.387,0.209-0.577,0.322c-0.133,0.079-0.269,0.152-0.398,0.24
		c-0.205,0.139-0.397,0.297-0.59,0.456c-0.102,0.084-0.209,0.158-0.308,0.248c-0.284,0.259-0.554,0.537-0.804,0.841
		c-0.162,0.197-0.313,0.401-0.454,0.61c-0.052,0.077-0.096,0.157-0.146,0.235c-0.084,0.134-0.168,0.267-0.244,0.405
		c-0.055,0.1-0.102,0.202-0.153,0.304c-0.059,0.12-0.119,0.239-0.172,0.362c-0.049,0.114-0.093,0.23-0.137,0.346
		c-0.043,0.113-0.085,0.226-0.123,0.341c-0.041,0.125-0.077,0.251-0.111,0.378c-0.03,0.109-0.058,0.218-0.083,0.328
		c-0.03,0.134-0.057,0.269-0.08,0.404c-0.018,0.104-0.033,0.209-0.047,0.314c-0.019,0.144-0.035,0.287-0.046,0.433
		c-0.007,0.094-0.01,0.189-0.014,0.284c-0.007,0.159-0.011,0.317-0.008,0.477c0,0.019-0.001,0.037-0.001,0.056
		c-0.177-0.031-0.355-0.059-0.535-0.083c-3.173-2.444-4.987-6.113-4.987-10.109C7.984,11.198,13.723,5.459,20.777,5.459z"/>
	<path d="M58.192,34.459c-0.276-0.479-0.889-0.643-1.366-0.366l-2.83,1.634v-3.268c0-0.552-0.448-1-1-1s-1,0.448-1,1v3.268
		l-2.83-1.634c-0.48-0.276-1.09-0.112-1.366,0.366c-0.276,0.479-0.112,1.09,0.366,1.366l2.83,1.634l-2.83,1.634
		c-0.479,0.276-0.642,0.888-0.366,1.366c0.186,0.321,0.521,0.5,0.867,0.5c0.169,0,0.342-0.043,0.499-0.134l2.83-1.634v3.268
		c0,0.552,0.448,1,1,1s1-0.448,1-1v-3.268l2.83,1.634c0.158,0.091,0.33,0.134,0.499,0.134c0.346,0,0.682-0.179,0.867-0.5
		c0.276-0.479,0.112-1.09-0.366-1.366l-2.83-1.634l2.83-1.634C58.304,35.549,58.468,34.938,58.192,34.459z"/>
	<path d="M37.192,34.459c-0.277-0.479-0.889-0.643-1.366-0.366l-2.83,1.634v-3.268c0-0.552-0.448-1-1-1s-1,0.448-1,1v3.268
		l-2.83-1.634c-0.48-0.276-1.09-0.112-1.366,0.366c-0.276,0.479-0.112,1.09,0.366,1.366l2.83,1.634l-2.83,1.634
		c-0.479,0.276-0.642,0.888-0.366,1.366c0.186,0.321,0.521,0.5,0.867,0.5c0.169,0,0.342-0.043,0.499-0.134l2.83-1.634v3.268
		c0,0.552,0.448,1,1,1s1-0.448,1-1v-3.268l2.83,1.634c0.158,0.091,0.33,0.134,0.499,0.134c0.346,0,0.682-0.179,0.867-0.5
		c0.276-0.479,0.112-1.09-0.366-1.366l-2.83-1.634l2.83-1.634C37.304,35.549,37.468,34.938,37.192,34.459z"/>
	<path d="M48.192,47.491c-0.276-0.479-0.889-0.643-1.366-0.366l-2.83,1.634v-3.268c0-0.552-0.448-1-1-1s-1,0.448-1,1v3.268
		l-2.83-1.634c-0.48-0.276-1.09-0.112-1.366,0.366c-0.276,0.479-0.112,1.09,0.366,1.366l2.83,1.634l-2.83,1.634
		c-0.479,0.276-0.642,0.888-0.366,1.366c0.186,0.321,0.521,0.5,0.867,0.5c0.169,0,0.342-0.043,0.499-0.134l2.83-1.634v3.268
		c0,0.552,0.448,1,1,1s1-0.448,1-1v-3.268l2.83,1.634c0.158,0.091,0.33,0.134,0.499,0.134c0.346,0,0.682-0.179,0.867-0.5
		c0.276-0.479,0.112-1.09-0.366-1.366l-2.83-1.634l2.83-1.634C48.304,48.58,48.468,47.969,48.192,47.491z"/>
</g>
</svg>